<?xml version="1.0" encoding="UTF-8" standalone="no"?>
<!DOCTYPE svg PUBLIC "-//W3C//DTD SVG 1.1//EN" "http://www.w3.org/Graphics/SVG/1.1/DTD/svg11.dtd">
<svg xmlns="http://www.w3.org/2000/svg" enable-background="new 0 0 170 38" x="0px" y="0px" viewBox="0 0 170 38" height="38" width="170" preserveAspectRatio="xMidYMid meet">
    <defs>
        <clipPath id="a">
            <path d="M0 270h597V0H0v270z"/>
        </clipPath>
    </defs>
    <g clip-path="url(#a)" transform="matrix(1.21778 0 0 -1.21778 -205.181 175.094)">
        <path d="M170.52 126.39c-.214-.616-.187-.883.107-.883.588 0 1.844 1.31 3.074 2.702.268.027.429-.108.429-.375-.696-1.337-2.38-3.557-4.6-3.557-.801 0-1.042.375-1.042.802 0 .428.134.91.588 2.274l4.251 12.651c.642 1.873.374 2.14-.026 2.328l-.482.213c-.133.107-.133.348 0 .429.482.186 2.14.695 3.37.801l.133-.16c-.347-.963-.615-1.712-1.578-4.6l-4.224-12.625M179.21 133.45c-1.043-1.123-1.657-2.353-1.979-3.13 1.766.536 2.594 1.044 3.583 1.98.83.776 1.043 1.578 1.043 1.819 0 .268-.133.615-.615.615-.374 0-1.07-.24-2.032-1.284m4.251.509c0-2.033-2.647-3.37-6.497-4.44-.187-.455-.374-1.311-.374-2.38 0-.91.562-1.526 1.283-1.526.962 0 1.632.536 2.808 1.552.24 0 .4-.215.347-.454-1.63-2.007-3.155-2.434-4.278-2.434-1.605 0-2.166 1.497-2.166 2.807 0 1.686 1.07 4.949 3.984 7.196 1.39 1.07 2.433 1.284 3.208 1.284 1.07 0 1.685-.91 1.685-1.605M189.48 134.04a.936.936 0 0 0-.48-.828c-.188-.055-.349 0-.51.212-.454.456-.801.857-1.63.857-.775 0-1.096-.669-1.096-1.07 0-.562.133-1.123.91-2.434.668-1.124 1.068-1.792 1.015-2.969-.026-.722-.402-1.712-1.39-2.568-.696-.615-1.685-.962-2.701-.962-1.015 0-1.631.801-1.631 1.416 0 .268.107.562.4.883a.537.537 0 0 0 .724 0c.347-.4 1.15-1.07 1.844-1.07.642 0 1.283.67 1.283 1.526 0 .454-.32 1.283-.988 2.353-.696 1.123-.937 2.033-.937 2.487 0 1.044.455 1.82 1.604 2.809.776.669 1.631.883 1.98.883.988 0 1.603-.856 1.603-1.525M199.02 131.85c-1.685-1.926-2.514-4.12-2.514-5.349 0-1.044.482-1.391.936-1.391.401 0 1.417.508 2.567 1.792 1.657 1.872 3.636 5.269 3.636 6.794 0 .721-.454.962-.936.962-.722 0-2.032-.91-3.689-2.808m-1.632-.937h.054c1.872 2.836 3.663 4.655 5.668 4.655 1.578 0 2.3-1.043 2.3-2.407 0-1.846-1.284-4.173-3.45-6.287-2.192-2.112-4.17-2.593-5.106-2.593-1.444 0-2.139.936-2.139 2.46 0 1.257.587 3.183 1.364 5.269l3.101 8.238c.56 1.498.641 1.98.268 2.22l-.616.428c-.053.107-.026.268.08.375.509.187 1.98.535 3.209.508l.106-.16c-.56-1.498-.961-2.515-1.362-3.558l-3.477-9.148M216.16 131.85c-1.685-1.926-2.514-4.12-2.514-5.349 0-1.044.482-1.391.937-1.391.4 0 1.417.508 2.566 1.792 1.658 1.872 3.637 5.269 3.637 6.794 0 .721-.455.962-.937.962-.721 0-2.031-.91-3.689-2.808m-1.63-.937h.053c1.872 2.836 3.663 4.655 5.668 4.655 1.578 0 2.3-1.043 2.3-2.407 0-1.846-1.284-4.173-3.45-6.287-2.193-2.112-4.171-2.593-5.106-2.593-1.445 0-2.14.936-2.14 2.46 0 1.257.588 3.183 1.364 5.269l3.101 8.238c.562 1.498.642 1.98.268 2.22l-.615.428c-.054.107-.027.268.08.375.508.187 1.979.535 3.208.508l.107-.16c-.56-1.498-.962-2.515-1.363-3.558l-3.476-9.148M224.16 126.39c-.214-.616-.187-.883.107-.883.588 0 1.845 1.31 3.074 2.702.268.027.429-.108.429-.375-.695-1.337-2.38-3.557-4.6-3.557-.801 0-1.042.375-1.042.802 0 .428.134.91.588 2.274l4.251 12.651c.642 1.873.374 2.14-.026 2.328l-.482.213c-.134.107-.134.348 0 .429.482.186 2.14.695 3.369.801l.134-.16c-.347-.963-.615-1.712-1.577-4.6l-4.225-12.625M235.38 140.97c0-.83-.588-1.685-1.417-1.685-.694 0-.962.535-.962 1.016 0 .588.4 1.685 1.443 1.685.616 0 .936-.428.936-1.016m-3.422-7.623c.134.294.134.508-.054.508-.186 0-.881-.322-2.219-1.417-.24.026-.401.24-.347.454 1.47 1.685 3.53 2.675 4.412 2.675.186 0 .32-.161.427-.268.16-.16.16-.4-.16-1.177l-3.182-7.596c-.107-.267-.134-.588.08-.588.455 0 1.872.936 2.781 1.98.267-.028.4-.214.4-.455-.4-.776-3.154-3.183-4.999-3.183-.133 0-.294.08-.428.24-.16.188-.24.428-.107.722l3.396 8.105M239.53 133.48c-1.551-2.087-2.593-5.27-2.674-6.686-.053-.937.322-1.713 1.097-1.713.588 0 1.257.241 2.111 1.392 1.177 1.577 2.434 5.108 2.488 6.526.026.829-.135 1.765-1.07 1.765-.535 0-1.177-.24-1.952-1.284m4.866-1.284c-.08-1.47-.856-4.039-2.834-6.071-1.657-1.712-3.102-1.846-3.823-1.846-1.711 0-2.835 1.258-2.674 3.558.106 1.658 1.096 4.252 2.914 5.99 1.39 1.338 2.594 1.74 3.69 1.74 1.899 0 2.834-1.418 2.727-3.37M248.89 133.91l-2.407-7.034c-.16-.509-.027-.669.187-.669.402 0 2.166 1.391 3.049 2.408.267 0 .427-.161.374-.482-1.498-2.22-4.01-3.852-5.134-3.852-.375 0-.722.401-.722.722 0 .349.107.723.374 1.525l2.514 7.382h-2.085c-.054.268.026.643.294.75l2.14.373 1.496 2.648c.267.16.802.107 1.016-.16l-.776-2.621h2.915c.187-.268.026-.803-.32-.99h-2.915M255.55 140.01c.589 1.765.722 2.14.294 2.435l-.561.373c-.053.133-.053.24.08.348.427.187 2.192.562 3.128.615l.107-.16c-.534-1.498-1.39-3.932-1.925-5.457l-2.754-8.024v.027l.054-.053c1.871 2.648 3.262 3.717 4.224 4.413.963.695 1.818 1.043 2.54 1.043 1.176 0 1.604-.856 1.604-1.792 0-1.846-1.15-4.547-2.085-6.26-.535-.909-1.043-1.497-1.738-2.192-.882-.882-1.604-1.044-1.952-1.044-.882 0-.99.562-.99.777 0 .454.375.855.723.855.107 0 .24-.053.374-.16.214-.161.508-.348.695-.348.402 0 .669.401 1.07 1.337.722 1.739 1.925 5.43 1.925 6.9 0 .509-.187.803-.562.803-.374 0-.936-.32-1.444-.722-1.122-.856-2.005-1.738-3.395-3.557-1.203-1.604-2.54-4.2-3.236-5.564-.106-.214-.24-.32-.48-.32-.294 0-1.017.08-.776.695l5.08 15.032M265.39 140.01c-.295.294-.455.561-.455.802s.16.455.482.696c.24.16.453.267.668.267.347 0 .695-.455.91-.856l2.272-4.199c-.027-.214-.215-.322-.428-.322l-3.449 3.612zm1.364-6.554c-1.044-1.123-1.659-2.353-1.98-3.129 1.766.535 2.595 1.043 3.584 1.98.828.775 1.042 1.578 1.042 1.819 0 .267-.133.615-.615.615-.374 0-1.069-.241-2.031-1.285m4.25.51c0-2.034-2.646-3.371-6.497-4.44-.187-.456-.373-1.312-.373-2.381 0-.91.56-1.525 1.283-1.525.962 0 1.63.535 2.807 1.551.24 0 .401-.214.347-.455-1.63-2.006-3.154-2.434-4.278-2.434-1.604 0-2.165 1.498-2.165 2.81 0 1.684 1.07 4.947 3.983 7.194 1.391 1.07 2.434 1.284 3.21 1.284 1.07 0 1.683-.91 1.683-1.605M275.65 133.7c-1.738-1.605-3.903-5.51-3.903-7.462 0-.428.214-.75.589-.75.4 0 1.256.455 2.245 1.284 1.096.937 2.566 2.488 3.37 3.852.72 1.284.748 2.06.748 2.621 0 .536-.321 1.525-.963 1.525-.481 0-1.203-.268-2.086-1.07m1.31-13.293c-.454-1.418-.4-1.873.295-1.926l.882-.08c.134-.16.106-.482-.107-.59-.99-.053-4.09-.48-5.775-.775-.214.107-.267.456-.107.615l1.23.375c1.15.348 1.31.83 1.712 2.086l3.074 9.549h-.053c-1.23-1.765-4.038-5.375-6.658-5.375-1.15 0-1.63 1.015-1.63 2.005 0 .91.214 2.38 1.336 4.253 1.042 1.765 2.566 3.343 4.09 4.173 1.15.615 1.979.856 3.048.856.723 0 1.284-.67 1.444-1.471.374.615.99 1.577 1.444 2.166.241.053.588-.054.616-.32-.268-.803-.669-2.167-1.631-5.27l-3.21-10.271M283.94 126.95c-.24-.642-.107-.908.188-.908.401 0 1.47.855 2.86 2.22 2.433 2.407 3.824 5.51 4.706 7.14.561.108 1.203-.16 1.31-.481-.267-.723-2.005-5.109-3.128-8.291-.134-.348-.16-.669.106-.669.508 0 1.926 1.257 2.621 2.086.24.053.455-.054.482-.374-.695-1.284-3.263-3.397-4.68-3.397-.427 0-.828.508-.668.936l1.818 4.895-.053.026c-1.925-2.434-5.241-5.857-6.684-5.857-1.097 0-1.23 1.096-.776 2.273l2.46 6.5c.187.508.214.776 0 .776-.509 0-1.898-1.177-2.54-1.846a.374.374 0 0 0-.456.401c.696 1.07 3.37 3.183 4.627 3.183.347 0 .962-.347.802-.803l-2.995-7.81M298.22 133.45c-1.044-1.123-1.658-2.353-1.98-3.13 1.765.536 2.595 1.044 3.583 1.98.83.776 1.043 1.578 1.043 1.819 0 .268-.134.615-.614.615-.375 0-1.071-.24-2.032-1.284m4.251.509c0-2.033-2.648-3.37-6.498-4.44-.187-.455-.374-1.311-.374-2.38 0-.91.561-1.526 1.283-1.526.963 0 1.631.536 2.808 1.552.24 0 .401-.215.347-.454-1.63-2.007-3.155-2.434-4.278-2.434-1.605 0-2.165 1.497-2.165 2.807 0 1.686 1.07 4.949 3.984 7.196 1.39 1.07 2.433 1.284 3.208 1.284 1.069 0 1.685-.91 1.685-1.605M308.49 134.04a.937.937 0 0 0-.48-.828c-.188-.055-.349 0-.51.212-.453.456-.801.857-1.63.857-.775 0-1.096-.669-1.096-1.07 0-.562.133-1.123.91-2.434.667-1.124 1.068-1.792 1.015-2.969-.026-.722-.401-1.712-1.39-2.568-.696-.615-1.685-.962-2.701-.962s-1.632.801-1.632 1.416c0 .268.108.562.402.883a.537.537 0 0 0 .723 0c.347-.4 1.148-1.07 1.844-1.07.642 0 1.283.67 1.283 1.526 0 .454-.32 1.283-.988 2.353-.696 1.123-.937 2.033-.937 2.487 0 1.044.455 1.82 1.604 2.809.776.669 1.631.883 1.98.883.988 0 1.603-.856 1.603-1.525" fill="#000"/>
        <path d="M190.21 119.65s11.948-12.208 30.754 2.103c0 0-16.362-19.163-30.754-2.103" fill="#000"/>
        <path d="M211.48 137.15c0-.83-.589-1.685-1.417-1.685-.695 0-.963.534-.963 1.016 0 .588.401 1.686 1.444 1.686.615 0 .936-.429.936-1.017m-3.422-7.623c.133.294.133.508-.054.508s-.882-.32-2.22-1.417c-.24.027-.4.24-.347.454 1.471 1.685 3.53 2.675 4.412 2.675.187 0 .32-.16.428-.268.16-.16.16-.4-.16-1.176l-3.182-7.597c-.108-.267-.134-.588.08-.588.454 0 1.872.936 2.78 1.98.268-.027.402-.214.402-.455-.402-.776-3.155-3.183-5-3.183-.134 0-.295.08-.429.24-.16.188-.24.428-.106.722l3.396 8.105" fill="#000"/>
    </g>
</svg>