<svg xmlns="http://www.w3.org/2000/svg" viewBox="0 0 153 60">
    <path d="M129.83 29.15v8.6l.02.32-.33-.02h-4.17l-.33.02.02-.32V29.9c0-2.29-1.31-3.38-2.94-3.38-1.62 0-2.93 1.1-2.93 3.38v7.84l.02.32-.33-.02h-4.17l-.33.02.02-.32V29.9a7.73 7.73 0 0 1 7.72-7.73 7.7 7.7 0 0 1 4.8 1.68l.1.28.09-.27a8.37 8.37 0 0 1 .42-.43l.28-.06-.26-.12a7.15 7.15 0 0 1-1.84-4.79V1.32l-.01-.32.32.02h4.17l.33-.02-.02.32v17.15c0 1.86 1.07 2.75 2.4 2.75 1.31 0 2.38-.9 2.38-2.75V1.32l-.01-.32.32.02h4.17l.33-.02-.02.32v17.15a7.15 7.15 0 0 1-1.84 4.79l-.26.12.29.06.42.42.09.28.1-.28a7.7 7.7 0 0 1 4.8-1.68 7.73 7.73 0 0 1 7.72 7.73v7.84l.02.32-.33-.02h-4.17l-.33.02.02-.32V29.9c0-2.28-1.31-3.37-2.94-3.37-1.62 0-2.93 1.09-2.93 3.37v7.84l.02.33-.33-.02h-4.17l-.33.02.02-.33v-8.6c0-2.36-1.37-3.49-3.05-3.49-1.68 0-3.04 1.13-3.04 3.5z" fill="#006bb6"/>
    <path d="M35.85 57.17c-.61.48-1.36.9-2.51.9-1.51 0-2.8-1.1-2.8-4.08 0-3.06 1.05-4.48 2.78-4.48 1.16 0 1.97.41 2.53 1.04zm0 2.04h4.41v-.46l-1.63-.4v-15H34.1v.5l1.75.5v5.06a5.36 5.36 0 0 0-3.49-1.17c-2.75 0-4.78 2.42-4.78 5.78 0 3.44 1.86 5.44 4.8 5.44a5.1 5.1 0 0 0 3.47-1.32zm41.49-15.87v.49l-1.66.44v14.01l1.66.44v.5h-6.9v-.52l2.22-.42V47.12l-5.15 12.1h-1.2l-5.06-12.15V58.3l2.13.36v.56H58.4v-.49l1.41-.41V44.24l-1.41-.4v-.5h4.44l4.93 12.15 5.07-12.15m11.42 5.68c1.9 0 2.9 2.12 2.9 4.8 0 2.66-1 4.86-2.9 4.86-1.87 0-2.9-2.2-2.9-4.86 0-2.65 1.03-4.8 2.9-4.8zm0-.78c-3.12 0-5.92 2.17-5.92 5.6 0 3.35 2.83 5.62 5.92 5.62 3.12 0 5.95-2.27 5.95-5.61 0-3.44-2.83-5.6-5.95-5.6zm57.4 9.2c-.56.36-1.05.72-1.92.72-1.42.03-1.8-.85-1.8-1.87 0-1.05.7-1.76 2-1.98l1.72-.2zm0-5.88v1.83l-2.46.12c-2.39.07-3.88 1.36-3.88 3.14 0 1.8 1.34 2.8 3.12 2.8 1.47 0 2.52-.7 3.22-1.21v.97h4.04v-.46l-1.3-.4V51.1c0-1.59-1.06-2.86-3.42-2.86-2.41 0-3.93.69-4.78 1.05v2.51h1.2l.4-2.09a4.73 4.73 0 0 1 2.23-.27c1.44.12 1.6 1.12 1.63 2.12zM153 58.75v.46h-6.05v-.46l1.64-.39V44.27l-1.64-.41v-.52h4.42v15.02M13.26 23.16l-2.37-.47v-.5h5.49v.48l-1.68.49v9.6c0 3.99-2.18 5.6-6.64 5.6-4.57 0-6.43-1.74-6.43-5.35v-9.93L0 22.67v-.49h7.02v.54l-2.39.41v9.73c0 2.94 1 4.39 4.07 4.39 3.33 0 4.56-1.5 4.56-4.66v-9.43zm9.44 14.43v.46h-5.92v-.46l1.6-.4v-9.06l-1.46-.41v-.51h4.24v1.65c.5-.41 2.03-1.78 4-1.78 2.05 0 3.1 1.15 3.1 3.15v6.94l1.56.4v.48h-5.75v-.49l1.43-.36v-6.66c0-1.04-.31-1.97-1.63-1.97-1.17 0-2.36.83-2.7 1.05v7.58zm12.5-.4l1.6.4v.46H30.8v-.46l1.63-.4v-9.06l-1.46-.41v-.51h4.24m.14-3.74c0 .83-.73 1.51-1.6 1.51-.86 0-1.61-.68-1.61-1.5 0-.83.75-1.54 1.6-1.54.88 0 1.61.7 1.61 1.53zM83.08 37.2l1.6.39v.46h-6.01v-.46l1.63-.4v-9.06l-1.46-.41v-.51h4.24m.15-3.74c0 .83-.74 1.52-1.61 1.52-.86 0-1.61-.69-1.61-1.52 0-.82.75-1.53 1.6-1.53.88 0 1.62.7 1.62 1.53zm-45.54 4.5l-.78-.33v-.44h5.26v.44l-1.68.42 2.42 6.6 2.4-6.65-1.47-.37v-.44h3.61v.44l-.88.42-4.12 10.16h-.9M55.1 31.1h-4.32c.25-1.85.98-3.21 2.27-3.21 1.46 0 1.95 1.7 2.05 3.21zm-4.44.86h7.17c-.08-3-1.64-4.88-4.78-4.88-3.1 0-5.39 2.68-5.39 5.6 0 3.4 2.22 5.62 5.41 5.62 2.73 0 4.15-1.08 4.98-1.69l-.47-.73c-.63.4-1.9 1.25-4 1.12-2.1-.14-3.14-2.34-2.92-5.04zm25.83-4.32l-.25 2.66h-1L75 28.5c-.37-.2-.85-.61-1.93-.61-.87 0-1.56.46-1.56 1.41 0 1.12 1.25 1.56 2.49 2.12 1.2.51 3.15 1.24 3.15 3.17 0 2.2-1.8 3.7-3.98 3.7-2 0-3.17-.46-3.5-.58l-.2-2.95 1.02-.1.59 2c.29.22 1.1.85 2.07.83 1.39 0 2.05-.73 2.05-1.78 0-1.24-1.74-1.78-2.88-2.31-1.07-.52-2.73-.98-2.73-3.2 0-1.83 1.51-3.12 3.56-3.12 1.75 0 2.85.42 3.34.56zm26.67-4.02l-1.05-1.56-3.73 2.93.61.87m2.12 5.24H96.8c.24-1.85.97-3.21 2.26-3.21 1.47 0 1.95 1.7 2.05 3.21zm-4.44.86h7.17c-.07-3-1.63-4.88-4.78-4.88-3.1 0-5.38 2.68-5.38 5.6 0 3.4 2.21 5.62 5.4 5.62 2.74 0 4.15-1.08 4.98-1.69l-.46-.73c-.64.4-1.9 1.25-4 1.12-2.1-.14-3.15-2.34-2.93-5.04zM67 27.1c-1.56 0-2.68 1.25-3.32 2.66h-.05v-2.55h-4.41v.44l1.63.48v9.07l-1.63.39v.46h6.77v-.53l-2.36-.4v-6.15c.65-1.42 1.6-2 2.2-2 .46 0 .63.1.99.4.12.1.59.23.87.1.53-.22.67-.61.67-1.18 0-.63-.6-1.2-1.36-1.2zm30.23 31.65v.46h-5.92v-.46l1.6-.4V49.3l-1.46-.41v-.51h4.24v1.65c.5-.41 2.03-1.78 4-1.78 2.05 0 3.1 1.15 3.1 3.15v6.94l1.56.4v.48h-5.76v-.49l1.44-.36V51.7c0-1.05-.31-1.97-1.63-1.97-1.17 0-2.36.83-2.7 1.05v7.58zm24.34-10.5c-1.56 0-2.69 1.26-3.32 2.67h-.05v-2.56h-4.42v.45l1.64.48v9.07l-1.64.39v.46h6.78v-.54l-2.37-.39v-6.15c.65-1.43 1.6-2 2.21-2 .46 0 .63.09.98.4.13.1.6.23.87.1.53-.23.68-.62.68-1.19 0-.62-.6-1.18-1.36-1.18zM92.83 36.84c-.41.28-.83.48-1.44.48-.98 0-1.3-.72-1.3-2.32v-6.83l2.78-.42v-.54h-2.78v-5.02h-.9c-.19 2.88-1.2 4.76-3.77 5.02H85v.54l2.31.42v6.97c0 2.21.54 3.16 2.61 3.16 1.5 0 2.69-.56 3.18-1.02zM112.52 58c-.41.27-.83.47-1.45.47-.97 0-1.29-.72-1.29-2.32v-6.83l2.78-.42v-.53h-2.78v-5.03h-.9c-.19 2.88-1.2 4.76-3.77 5.02h-.42v.54l2.31.42v6.97c0 2.21.54 3.16 2.61 3.16 1.5 0 2.69-.56 3.18-1.02zM48.5 52.26h-4.32c.25-1.85.98-3.21 2.27-3.21 1.46 0 1.95 1.7 2.05 3.21zm-4.44.86h7.17c-.07-3-1.63-4.88-4.78-4.88-3.1 0-5.39 2.68-5.39 5.6 0 3.4 2.22 5.61 5.42 5.61 2.73 0 4.14-1.07 4.97-1.68l-.47-.73c-.63.4-1.9 1.25-4 1.12-2.09-.14-3.14-2.34-2.92-5.04zm86.55-.86h-4.32c.25-1.85.98-3.21 2.27-3.21 1.46 0 1.95 1.7 2.05 3.21zm2.04-7.48l-1.04-1.56-3.73 2.93.6.87zm-6.48 8.34h7.17c-.08-3-1.64-4.88-4.78-4.88-3.1 0-5.39 2.68-5.39 5.6 0 3.4 2.22 5.61 5.41 5.61 2.73 0 4.15-1.07 4.98-1.68l-.47-.73c-.63.4-1.9 1.24-4 1.12-2.1-.14-3.14-2.34-2.92-5.04z"/>
</svg>