<?xml version="1.0" encoding="utf-8"?>
<!DOCTYPE svg PUBLIC "-//W3C//DTD SVG 1.1//EN" "http://www.w3.org/Graphics/SVG/1.1/DTD/svg11.dtd">
<svg xmlns="http://www.w3.org/2000/svg" x="0px" y="0px" width="100" height="60" viewBox="0 55 100 60" preserveAspectRatio="xMidYMid meet">
    <path fill="#FFF" d="M84.77 73.43v5.9h-3.2v-5.41c0-1.48-.82-2.21-1.88-2.21s-1.88.73-1.88 2.2v5.41h-3.2v-5.4a5.1 5.1 0 0 1 8.19-4.02l.08.17.08-.16.25-.25.16-.08-.16-.08a4.77 4.77 0 0 1-1.23-3.12V55h3.2v11.47c0 1.22.73 1.8 1.55 1.8.82 0 1.56-.58 1.56-1.8V55h3.2v11.47c0 1.22-.5 2.29-1.24 3.1l-.16.09.16.08.25.25.08.16.08-.16a5.28 5.28 0 0 1 3.12-1.07A5.1 5.1 0 0 1 98.84 74v5.4h-3.2v-5.48c0-1.48-.9-2.21-1.88-2.21-1.06 0-1.88.73-1.88 2.21v5.4h-3.2v-5.9c0-1.55-.9-2.28-1.96-2.28s-1.96.73-1.96 2.29M23.34 93.08h2.87v-.32l-1.07-.25v-9.83H22.2v.33l1.14.33v3.27c-.49-.4-1.23-.73-2.3-.73-1.8 0-3.1 1.55-3.1 3.76s1.22 3.52 3.1 3.52c.9 0 1.73-.32 2.3-.9v.82zm0-1.3c-.4.32-.9.57-1.64.57-.98 0-1.8-.74-1.8-2.7 0-1.97.66-2.95 1.8-2.95.74 0 1.31.24 1.64.65v4.42zm27.11-9.1v.33l-1.06.33v9.17l1.06.24v.33h-4.5v-.33l1.47-.24v-7.37l-3.36 7.94h-.82l-3.27-7.94v7.37l1.4.24v.33h-3.29v-.33l.9-.24v-9.17l-.9-.33v-.33h2.87l3.28 7.95 3.27-7.95h2.95zm4.59 3.2c-2.05 0-3.85 1.39-3.85 3.68 0 2.21 1.88 3.69 3.85 3.69 2.04 0 3.93-1.48 3.93-3.69a3.83 3.83 0 0 0-3.93-3.69m0 .58c1.23 0 1.88 1.4 1.88 3.11 0 1.72-.65 3.2-1.88 3.2s-1.89-1.48-1.89-3.2c-.08-1.72.66-3.11 1.89-3.11m37.5 1.64v1.23l-1.63.08c-1.56.08-2.54.9-2.54 2.05 0 1.14.9 1.8 2.05 1.8.98 0 1.63-.5 2.13-.82v.65h2.62v-.32l-.82-.25v-4.75c0-1.06-.66-1.88-2.21-1.88-1.56 0-2.54.4-3.11.65v1.64h.81l.25-1.4c.16-.07.65-.24 1.47-.16.82.17.99.82.99 1.48m0 3.85c-.33.24-.66.49-1.23.49-.9 0-1.15-.58-1.15-1.23 0-.66.5-1.15 1.31-1.31l1.15-.17v2.22h-.08zm7.45.81v.33h-4.01v-.33l1.06-.24v-9.17L95.99 83v-.33h2.86v9.83l1.15.24zM8.6 69.5l-1.56-.33v-.33h3.6v.33l-1.06.33v6.3c0 2.62-1.39 3.69-4.34 3.69-3.03 0-4.17-1.15-4.17-3.52V69.5L0 69.25v-.33h4.59v.33l-1.56.25v6.38c0 1.97.66 2.87 2.62 2.87 2.21 0 2.95-.98 2.95-3.03V69.5zm6.14 9.42v.32H10.9v-.32l1.07-.25v-5.9l-.99-.24v-.33h2.79v1.06c.33-.24 1.31-1.14 2.62-1.14s2.05.74 2.05 2.05v4.5l.98.25v.32h-3.77v-.32l.9-.25v-4.34c0-.66-.24-1.31-1.06-1.31-.74 0-1.56.57-1.8.65v5l1.06.25zm8.2-.25l1.06.24v.33h-3.94v-.33l1.07-.24v-5.9l-.98-.24v-.41h2.78v6.55zm.07-8.93c0 .58-.49.98-1.06.98-.57 0-1.06-.4-1.06-.98s.49-.98 1.06-.98c.57-.08 1.06.4 1.06.98m31.2 8.93l1.07.24v.33h-3.93v-.33l1.06-.24v-5.9l-.98-.24v-.41h2.79v6.55zm.09-8.93c0 .58-.5.98-1.06.98-.58 0-1.07-.4-1.07-.98s.5-.98 1.07-.98c.57-.08 1.06.4 1.06.98m-29.73 2.87l-.57-.17v-.32h3.43v.32l-1.06.25 1.56 4.34 1.55-4.34-.9-.25v-.32h2.38v.32l-.57.25-2.7 6.63h-.66l-2.46-6.71zm8.44 2.62h4.66c-.08-1.97-1.06-3.2-3.1-3.2a3.58 3.58 0 0 0-3.53 3.7c0 2.2 1.48 3.68 3.52 3.68 1.8 0 2.7-.74 3.28-1.07l-.33-.49c-.41.25-1.23.82-2.62.74-1.31-.09-2.05-1.56-1.88-3.36m2.94-.5h-2.78c.16-1.22.66-2.12 1.47-2.12.9 0 1.23 1.14 1.31 2.13m13.93-2.3l-.09 1.73h-.65l-.16-1.15c-.25-.16-.58-.41-1.23-.41-.58 0-.99.33-.99.9 0 .74.82.98 1.64 1.4.82.32 2.05.81 2.05 2.04 0 1.47-1.15 2.46-2.62 2.46-1.31 0-2.05-.33-2.3-.41l-.16-1.97.66-.08.4 1.31c.17.16.74.57 1.4.57.9 0 1.31-.49 1.31-1.14 0-.82-1.14-1.15-1.88-1.56-.74-.33-1.8-.65-1.8-2.05 0-1.22.98-2.04 2.29-2.04 1.14 0 1.88.32 2.13.4m17.44-2.62l-.65-1.06-2.46 1.96.4.58 2.71-1.48zm-4.18 5.4h4.67c-.08-1.96-1.06-3.19-3.1-3.19s-3.53 1.72-3.53 3.7c0 2.2 1.47 3.68 3.52 3.68 1.8 0 2.7-.74 3.28-1.07l-.33-.49c-.41.25-1.23.82-2.62.74-1.4-.09-2.05-1.56-1.89-3.36m2.87-.5h-2.78c.16-1.22.65-2.12 1.47-2.12.9 0 1.23 1.14 1.31 2.13m-22.28-2.62c-.98 0-1.72.81-2.2 1.72V72.2h-2.87v.33l1.06.32v5.9l-1.06.25v.32h4.42V79l-1.56-.25v-4.01c.41-.9 1.07-1.31 1.48-1.31.32 0 .4.08.65.24.08.08.41.17.58.08.32-.16.4-.4.4-.73 0-.58-.4-.9-.9-.9m19.74 20.63v.33h-3.85v-.33l1.07-.24v-5.9l-.99-.24v-.33h2.79v1.06c.33-.24 1.31-1.14 2.62-1.14s2.05.74 2.05 2.05v4.5l.98.25v.32h-3.77v-.32l.9-.25v-4.34c0-.66-.24-1.31-1.06-1.31-.74 0-1.56.57-1.8.65v5l1.06.24zm15.9-6.8c-1 0-1.73.83-2.22 1.73v-1.64h-2.87v.33l1.07.33v5.9l-1.07.15v.33h4.43v-.33l-1.56-.24V88.5c.4-.9 1.06-1.31 1.47-1.31.33 0 .41.08.66.24.08.08.4.17.57.08.33-.16.41-.4.41-.73 0-.5-.33-.82-.9-.82m-18.75-7.54c-.25.17-.58.33-.99.33-.65 0-.82-.49-.82-1.56v-4.5l1.8-.25v-.32h-1.8v-3.28h-.57c-.08 1.88-.82 3.11-2.46 3.28h-.24v.32l1.47.25v4.59c0 1.47.33 2.04 1.72 2.04.98 0 1.72-.32 2.05-.65l-.16-.25zm12.85 13.84c-.24.17-.57.33-.98.33-.65 0-.82-.49-.82-1.56v-4.5l1.8-.25v-.33h-1.8v-3.27h-.57c-.08 1.88-.82 3.11-2.46 3.27h-.24v.33l1.47.25v4.59c0 1.47.33 2.04 1.72 2.04.98 0 1.72-.32 2.05-.65l-.17-.25zm-44.71-3.2h4.67c-.09-1.96-1.07-3.18-3.12-3.18a3.58 3.58 0 0 0-3.52 3.68c0 2.21 1.48 3.69 3.52 3.69 1.8 0 2.7-.74 3.28-1.07l-.33-.49c-.4.25-1.23.82-2.62.74s-2.05-1.56-1.88-3.36m2.86-.5h-2.78c.16-1.22.65-2.12 1.47-2.12.9 0 1.23 1.15 1.31 2.13m50.78.49h4.67c-.08-1.97-1.07-3.2-3.11-3.2s-3.52 1.73-3.52 3.7c0 2.2 1.47 3.68 3.52 3.68 1.8 0 2.7-.74 3.27-1.07l-.32-.49c-.41.25-1.23.82-2.62.74-1.32-.08-1.97-1.56-1.89-3.36m4.26-5.4l-.66-.99-2.45 1.89.4.57 2.7-1.47zm-1.31 4.9h-2.79c.17-1.22.66-2.12 1.48-2.12.9 0 1.23 1.15 1.31 2.13"/>
    <path fill="#49C7ED" d="M82.88 110.77h-2.05v2.05h2.05v-2.05zm-5-1.88h-2.94c.16-.9.65-1.48 1.47-1.48s1.4.58 1.48 1.48m1.88.73c0-1.96-1.06-3.76-3.36-3.76-1.96 0-3.35 1.64-3.35 3.52 0 2.13 1.55 3.52 3.6 3.52 1.23 0 2.13-.49 2.78-1.31l-1.14-.98c-.58.49-.98.74-1.64.74-.9 0-1.47-.5-1.64-1.32h4.75v-.4m-9.83-.25c0 1.15-.74 1.88-1.64 1.88-.9 0-1.63-.73-1.63-1.88s.73-1.88 1.63-1.88c.9 0 1.64.73 1.64 1.88zm1.89 3.44v-9.33h-1.97v3.35c-.4-.49-1.07-.98-2.05-.98-1.64 0-3.1 1.23-3.1 3.52 0 2.3 1.46 3.52 3.1 3.52.98 0 1.64-.49 2.13-1.14v.98h1.89v.08zm-8.36 0v-4.42c0-1.56-.82-2.54-2.3-2.54-.97 0-1.55.49-1.96 1.06v-.98h-2.05v6.8h1.97v-3.85c0-.9.5-1.4 1.23-1.4.74 0 1.15.5 1.15 1.4v3.85h1.96v.08zm-9.42-3.36c0 .99-.65 1.89-1.8 1.89-1.06 0-1.8-.9-1.8-1.89 0-.98.65-1.88 1.8-1.88 1.07-.08 1.8.82 1.8 1.88zm1.89-.08c0-1.97-1.56-3.52-3.69-3.52s-3.68 1.56-3.68 3.52 1.55 3.52 3.68 3.52a3.49 3.49 0 0 0 3.69-3.52m-8.52 3.44v-4.42c0-1.64-.9-2.54-2.3-2.54-.9 0-1.63.4-2.2 1.06a2.07 2.07 0 0 0-1.89-1.06c-.98 0-1.56.49-2.05 1.06v-.98h-1.96v6.8h1.96v-3.85c0-.9.41-1.4 1.15-1.4s1.15.5 1.15 1.4v3.85h1.96v-3.85c0-.9.41-1.4 1.15-1.4s1.14.5 1.14 1.4v3.85h1.89v.08zm-15.64 0v-6.8H29.8v3.85c0 .9-.49 1.4-1.23 1.4-.73 0-1.14-.5-1.14-1.4v-3.85h-1.97v4.43c0 1.55.82 2.53 2.3 2.53.98 0 1.55-.49 1.96-1.06v.98h2.05v-.08zm-9.75-3.44c0 1.15-.74 1.88-1.64 1.88-.9 0-1.63-.73-1.63-1.88s.73-1.88 1.63-1.88c.9 0 1.64.73 1.64 1.88zm1.97 3.44v-9.33h-1.97v3.35a2.53 2.53 0 0 0-2.13-.98c-1.64 0-3.1 1.23-3.1 3.52 0 2.3 1.46 3.52 3.1 3.52.98 0 1.64-.49 2.13-1.14v.98H24v.08zm-11.88-.24v-1.56c-.24.16-.57.24-.98.24-.41 0-.66-.24-.66-.65v-2.95h1.64v-1.64H10.5v-1.8H8.51v1.72H7.7v1.64h.82v3.28c0 1.55.82 2.04 1.96 2.04.82 0 1.23-.08 1.64-.33m-6.96-3.68H2.21c.17-.9.66-1.48 1.48-1.48s1.39.58 1.47 1.48m1.88.73c0-1.96-1.06-3.76-3.35-3.76-1.97 0-3.36 1.64-3.36 3.52 0 2.13 1.55 3.52 3.6 3.52 1.23 0 2.13-.49 2.79-1.31l-1.15-.9c-.57.49-.98.74-1.64.74-.9 0-1.47-.5-1.64-1.32h4.75v-.48"/>
</svg>