<svg xmlns="http://www.w3.org/2000/svg" viewBox="0 0 48 48">
  <path d="M.05 19.615q0 3.995 1.558 7.63 1.558 3.636 4.175 6.253t6.252 4.175q3.635 1.558 7.63 1.558l.08-.04.2.04q5.633 0 10.467-3.116L41.358 47.1q1.039.92 1.778.9.739-.02 1.698-.9l2.316-2.355q.8-1.04.8-1.859t-.8-1.578L36.206 30.322q3.074-4.754 3.074-10.427l-.04-.2.04-.08q0-3.995-1.558-7.63-1.558-3.636-4.175-6.252-2.617-2.617-6.252-4.175Q23.66 0 19.665 0t-7.63 1.558Q8.4 3.116 5.784 5.733 3.166 8.35 1.608 11.985.05 15.62.05 19.615zm6.752 0q0-3.515 1.717-6.472 1.718-2.956 4.675-4.674 2.956-1.718 6.47-1.718 3.517 0 6.473 1.718 2.957 1.718 4.674 4.674 1.718 2.957 1.718 6.472 0 3.516-1.718 6.472-1.717 2.956-4.674 4.674-2.956 1.718-6.472 1.718-3.515 0-6.471-1.718-2.957-1.718-4.675-4.674-1.717-2.956-1.717-6.472z" />
</svg>