<svg xmlns="http://www.w3.org/2000/svg" viewBox="0 0 1024 1024">
    <circle cx="512" cy="512" r="512" fill="#0093c9"/>
    <path d="m532.2 368.52c-2.7153 0-5.7512 4.668-5.6426 4.668l-47.688 57.467 48.219 58.104s3.0542 4.4628 5.7695 5.0059l265.34-0.44531a4.8876 4.8876 0 0 0 4.8789-4.8789v-114.91a4.9962 4.9962 0 0 0-4.8789-5.0059l-266-0.00391zm5.3262 9.8867h255.35v105.03h-255.35l-43.445-52.461 43.445-52.568zm118.28 48.764v10.211h10.209v-10.211h-10.209zm-121.54 80.805a5.1048 5.1048 0 0 0-4.9844 5.0078v114.81a5.1048 5.1048 0 0 0 4.9844 4.9863h121.55v107.98l-22.381 2.9258a3.8014 3.8014 0 0 0-2.0586 1.2949l-7.1699 9.0156a4.0187 4.0187 0 0 1-3.1602 1.5273h-32.584c-2.8239 0-5.0964 3.3511-5.748 6.0664v16.42a5.6479 5.6479 0 0 0 6.1934 4.9844h143.57a5.6479 5.6479 0 0 0 6.1934-4.9844v-16.525c-0.10861-2.7153-2.8186-5.8492-5.6426-6.0664h-32.584a4.0187 4.0187 0 0 1-3.1602-1.5274l-7.1699-9.0156a3.8014 3.8014 0 0 0-2.0586-1.2949l-22.379-2.8633v-107.93h134.68c2.7153 0 5.7695-4.668 5.7695-4.668l47.668-57.467-48.43-57.658s-3.0562-4.5714-5.7715-5.0059l-265.33-0.01172zm4.9004 9.8867h255.77l43.445 52.566-43.445 52.461h-255.77v-105.03zm116.64 47.359v10.209h10.209v-10.209h-10.209zm9.4473 184.86h7.3828l11.625 3.3535a3.5842 3.5842 0 0 1 2.0566 1.5274l5.6641 8.252a4.3445 4.3445 0 0 0 3.5645 1.8457h29.867a0.97751 0.97751 0 0 1 0.99805 0.97657v6.959h-0.33398v-6.9473a0.97751 0.97751 0 0 0-0.65235-0.97657h-30.303a4.3445 4.3445 0 0 1-3.584-1.8476l-5.6484-8.2539a3.5842 3.5842 0 0 0-2.0625-1.5195l-11.623-3.3672h-6.9512v-0.00195zm-18.533 0.55469-9.707 2.8125a3.5842 3.5842 0 0 0-0.9707 0.43164 3.5842 3.5842 0 0 1 0.97851-0.44532l9.6992-2.7988zm-10.688 3.25a3.5842 3.5842 0 0 0-0.24609 0.17578 3.5842 3.5842 0 0 1 0.24609-0.17578zm-0.30859 0.22461a3.5842 3.5842 0 0 0-0.1543 0.13476 3.5842 3.5842 0 0 1 0.1543-0.13476zm-0.29492 0.26757a3.5842 3.5842 0 0 0-0.06055 0.06446 3.5842 3.5842 0 0 1 0.06055-0.06446zm-3.457 4.9414-2.6699 3.9043a4.3445 4.3445 0 0 1-3.584 1.8457h-29.869a0.97751 0.97751 0 0 0-0.97461 0.9082 0.97751 0.97751 0 0 0-0.00195 0.07032v6.9473h-0.00196v-6.959a0.97751 0.97751 0 0 1 0.00391-0.0586 0.97751 0.97751 0 0 1 0.97266-0.91797h29.867a4.3445 4.3445 0 0 0 3.5859-1.8457l2.6719-3.8945z" fill="#fff"/>
</svg>
