<svg version="1.1" viewBox="0 0 1024 1024" xmlns="http://www.w3.org/2000/svg">
    <circle cx="512" cy="512" r="512" fill="#2c62ad"/>
    <path d="m718.55 299.56-192.42 171.74v227.21h384.79v-227.21l-192.37-171.74zm-0.0039 23.9 1.0898 1.0898 165.25 147.84 1.0898 1.0879-1.127 1.0898-165.25 147.84-1.1074 1.1074-1.0898-1.1074-164.1-147.84-1.1074-1.0898 1.1055-1.0879 164.14-147.84 1.1074-1.0898zm-39.014 100.33c-12.364 0-24.588 4.618-33.807 13.855-19.583 18.476-19.583 45.645 0 67.387 17.368 19.565 66.279 66.317 68.457 68.477l5.4258 5.4258 5.4277-5.4258c2.159-1.071 52.176-48.913 68.492-68.477 19.546-21.724 19.546-47.823 0-67.387-19.583-18.475-50.017-18.475-68.492 0l-5.4277 5.4453-5.4258-5.4453c-9.7825-9.2375-22.287-13.855-34.65-13.855zm79.736 14.941c8.421 0 16.847 3.2606 23.371 9.7852 14.157 13.049 14.157 30.437 0 46.734-13.05 15.227-49.982 50-63.031 63.049-14.12-13.049-48.912-47.822-63.031-63.049-14.138-15.208-14.138-32.615 0-46.734 5.427-6.534 14.121-9.7812 22.814-9.7812h0.00195c8.674 0 17.367 3.2472 23.92 9.7812l16.297 16.297 16.316-16.297c6.5055-6.5245 14.921-9.7852 23.342-9.7852zm-214.66 52.145 3.2676 3.2676 171.72 153.29 171.72-153.29 3.2676-3.2676v4.3379l-1.0449 0.00195v185.88h-348.93v-190.22z" fill="#fff"/>
</svg>
