<svg xmlns="http://www.w3.org/2000/svg" viewBox="0 0 1024 1024">
    <circle cx="512" cy="512" r="512" fill="#c92c99" />
    <path d="m598.95 344.59v167.78l-3.267-1.1078v-166.67h-1.1078l-154.36 116.32v268.5l155.46 64.138v-84.792c1.089 0 2.178-0.18776 3.267-0.28164v83.985l281.53-70.691v-284.79zm63.2 354.24-2.1404-161.38 204.21-84.116v249.74zm-6.8532-162.34 2.1592 162.45c-5.783 0.4694-21.611 1.7649-42.189 3.4735v-179.55zm-40.011-170.17 248.93 81.525v0.3943l-206.01 84.886 0.18776-0.52572-43.109-14.664zm-36.989 139.02-116.56-39.673 116.56-88.491zm-121.09-36.256 121.09 41.194v195.18c-50.789 4.2246-108.75 9.0875-121.74 10.477v-246.34zm121.09 301.6-119.79-50.263c13.932-1.3894 66.767-5.8581 119.79-10.252zm17.405-66.654v-187.82l3.267 1.1078v186.44c-1.089 0-2.178 0.18776-3.267 0.26286zm19.583 3.098c16.297-1.3331 31.656-2.6098 44.743-3.6613l203.77 4.2997-248.5 64.026v-64.664z" fill="#fff" />
</svg>
