<svg xmlns="http://www.w3.org/2000/svg" viewBox="0 0 1024 1024">
    <circle cx="512" cy="512" r="512" fill="#0093c9" />
    <path d="m473.94 417.41v240.24c0 10.871 8.6932 18.475 18.475 18.475h104.36v63.031h-53.267v16.297h234.81v-16.297h-53.286v-63.031h104.38c10.852 0 18.475-8.712 18.475-18.475v-240.24c0-10.871-8.6932-18.475-18.475-18.475h-336.97c-9.801 0.0188-18.494 8.6932-18.494 18.475zm233.7 321.76h-94.574v-63.031h94.574zm121.76-79.328h-336.97c-1.089 0-2.178-1.1078-2.178-2.178v-50h340.24v50c1.0702 2.178-0.0188 2.178-1.089 2.178zm2.1592-242.43v173.92h-341.33v-173.92c0-1.089 1.089-2.178 2.178-2.178h335.88c2.178 0.0188 3.267 1.1078 3.267 2.178z" fill="#fff" />
</svg>
